<svg xmlns="http://www.w3.org/2000/svg" viewBox="0 0 816 816"><defs><radialGradient id="psRadial" cx="50%" cy="42%" r="65%"><stop offset="0%" stop-color="#ffd4f2"/><stop offset="45%" stop-color="#d7c8ff"/><stop offset="100%" stop-color="#aee3ff"/></radialGradient><filter id="psGlow" width="180%" height="180%" x="-40%" y="-40%"><feGaussianBlur in="SourceGraphic" result="outerBlur" stdDeviation="22"/><feGaussianBlur in="SourceGraphic" result="innerBlur" stdDeviation="8"/><feBlend in="outerBlur" in2="innerBlur" mode="lighten" result="combined"/><feMerge><feMergeNode in="combined"/><feMergeNode in="SourceGraphic"/></feMerge></filter></defs><g><path fill="url(#psRadial)" d="M 560.00 206.00 C 567.84 203.32 574.26 198.33 581.77 194.77 C 589.29 191.21 595.94 187.86 603.98 184.98 C 612.01 182.09 620.23 179.74 628.93 177.93 C 637.62 176.12 647.64 174.21 657.00 174.00 C 666.36 173.79 678.32 173.92 686.93 176.07 C 695.53 178.22 702.52 180.67 709.92 185.08 C 717.32 189.49 722.63 193.58 727.75 200.25 C 732.87 206.92 737.76 211.04 740.69 219.31 C 743.62 227.57 746.93 234.73 747.67 244.33 C 748.41 253.93 748.61 264.92 747.33 275.33 C 746.05 285.74 745.28 290.32 741.78 301.78 C 738.28 313.23 747.31 309.69 749.07 299.07 C 750.83 288.46 753.14 282.02 754.02 272.02 C 754.91 262.02 755.67 250.31 753.99 241.01 C 752.31 231.71 750.47 224.03 746.77 216.23 C 743.07 208.43 739.33 203.08 734.10 196.90 C 728.87 190.72 723.72 186.69 716.75 182.25 C 709.78 177.82 702.95 174.68 694.68 172.32 C 686.40 169.97 676.15 168.47 667.00 168.00 C 657.85 167.53 645.93 169.96 637.00 171.00 C 628.08 172.04 619.22 174.31 611.02 177.02 C 602.82 179.74 595.63 182.22 588.02 186.03 C 580.42 189.83 573.68 191.37 566.70 196.70 C 559.71 202.02 553.09 203.73 546.23 197.77 C 539.37 191.82 532.61 191.06 525.08 186.92 C 517.55 182.78 510.33 180.87 502.07 177.93 C 493.82 174.98 484.86 172.99 476.07 170.93 C 467.29 168.87 458.34 167.23 449.07 165.93 C 439.80 164.63 428.92 164.23 419.22 163.78 C 409.52 163.32 397.90 162.34 388.02 163.02 C 378.15 163.71 368.47 164.90 359.00 166.00 C 349.53 167.10 340.06 168.25 331.07 170.07 C 322.09 171.89 313.17 174.35 304.67 176.67 C 296.17 179.00 288.17 181.30 280.22 184.22 C 272.28 187.15 265.26 190.57 257.69 193.69 C 250.13 196.82 243.22 200.45 236.08 204.08 C 228.93 207.70 222.40 211.60 215.70 215.70 C 208.99 219.79 202.57 223.76 196.23 228.23 C 189.89 232.70 183.78 236.94 177.75 241.75 C 171.71 246.56 165.49 251.61 159.75 256.75 C 154.01 261.90 148.49 266.42 143.25 272.25 C 138.00 278.08 133.08 283.09 128.25 289.25 C 123.42 295.41 118.94 300.95 114.77 307.77 C 110.61 314.59 107.13 321.04 103.32 328.32 C 99.51 335.61 97.78 343.79 94.93 351.93 C 92.07 360.06 91.06 369.90 89.93 378.93 C 88.79 387.96 88.60 401.02 90.02 409.98 C 91.44 418.93 93.61 427.16 97.02 434.98 C 100.44 442.79 103.43 448.87 108.75 455.25 C 114.07 461.63 118.48 466.01 125.25 470.75 C 132.02 475.49 138.17 479.09 146.33 481.67 C 154.49 484.26 163.78 486.82 173.00 487.00 C 182.22 487.18 196.03 487.40 204.93 485.93 C 213.82 484.46 222.16 481.77 230.32 479.32 C 238.48 476.88 245.58 473.48 252.92 469.92 C 260.27 466.37 267.05 462.91 273.75 458.75 C 280.46 454.60 286.14 449.98 292.30 445.30 C 298.47 440.62 304.58 436.55 310.25 431.25 C 315.92 425.94 321.19 421.22 326.75 415.75 C 332.32 410.28 337.88 404.79 342.75 398.75 C 347.61 392.71 352.14 387.17 356.70 380.70 C 361.25 374.23 364.72 367.89 368.69 360.69 C 372.67 353.50 374.88 345.80 377.68 337.68 C 380.48 329.55 382.03 319.11 382.00 310.00 C 381.97 300.89 382.00 289.88 377.77 282.23 C 373.54 274.58 370.98 269.43 363.08 264.92 C 355.17 260.42 346.33 258.61 337.00 258.00 C 327.67 257.39 315.73 258.32 307.00 260.00 C 298.27 261.69 289.54 263.37 281.69 266.69 C 273.85 270.02 266.71 272.65 259.70 276.70 C 252.68 280.74 246.47 284.46 240.08 289.08 C 233.69 293.70 228.22 298.14 222.23 303.23 C 216.24 308.32 210.84 313.49 205.25 319.25 C 199.65 325.00 195.38 330.32 190.75 336.75 C 186.12 343.19 182.38 349.62 178.92 356.92 C 175.47 364.23 172.28 372.80 170.99 380.99 C 169.70 389.19 168.85 402.67 171.67 410.33 C 174.49 417.98 175.18 426.63 182.25 431.75 C 189.32 436.88 192.63 444.43 204.00 442.00 C 215.36 439.57 199.36 436.64 192.25 432.75 C 185.14 428.87 181.74 420.01 181.00 412.00 C 180.26 403.99 182.56 391.62 185.02 384.02 C 187.49 376.43 190.68 368.55 194.75 361.75 C 198.81 354.94 202.86 348.80 207.70 342.70 C 212.54 336.59 216.60 330.75 222.25 325.25 C 227.90 319.75 233.12 314.25 238.75 308.75 C 244.38 303.26 249.64 298.63 255.77 293.77 C 261.90 288.91 268.08 285.09 274.92 280.92 C 281.76 276.75 288.16 273.10 295.98 269.98 C 303.79 266.85 313.29 265.03 321.98 263.98 C 330.66 262.92 342.19 262.63 350.32 265.68 C 358.45 268.72 364.08 271.71 369.23 278.77 C 374.38 285.83 376.10 295.68 376.67 304.33 C 377.24 312.98 375.87 324.61 373.78 332.78 C 371.68 340.95 368.10 348.39 364.77 355.77 C 361.44 363.15 357.39 369.52 352.92 375.92 C 348.45 382.32 344.20 388.20 338.92 393.92 C 333.64 399.63 329.37 405.36 323.75 410.75 C 318.14 416.15 312.87 420.85 307.08 426.08 C 301.29 431.31 295.04 436.14 288.75 440.75 C 282.46 445.36 276.95 450.16 270.08 454.08 C 263.22 458.01 257.07 462.11 249.69 465.69 C 242.32 469.28 234.75 471.85 226.68 474.68 C 218.61 477.50 209.94 479.65 201.00 481.00 C 192.06 482.35 179.98 481.82 171.00 481.00 C 162.02 480.18 152.04 478.38 144.23 474.77 C 136.42 471.17 130.93 467.92 124.70 462.30 C 118.46 456.69 114.75 452.04 110.31 444.70 C 105.86 437.35 104.16 428.87 102.78 420.22 C 101.40 411.57 100.91 400.15 102.22 391.22 C 103.53 382.29 106.13 373.84 108.68 365.68 C 111.23 357.51 114.24 350.37 118.08 343.08 C 121.91 335.78 125.53 328.66 130.08 322.08 C 134.63 315.50 138.37 309.33 143.25 303.25 C 148.12 297.16 152.55 291.42 157.75 285.75 C 162.95 280.08 167.54 274.48 173.25 269.25 C 178.96 264.02 183.51 258.41 189.25 253.25 C 195.00 248.10 200.84 243.82 206.75 238.75 C 212.67 233.69 219.31 229.13 225.75 224.75 C 232.19 220.38 238.08 215.92 244.92 211.92 C 251.77 207.93 258.50 204.48 265.77 200.77 C 273.04 197.07 280.19 194.05 287.92 190.92 C 295.66 187.80 303.45 185.08 311.77 182.77 C 320.09 180.46 327.96 177.21 336.98 175.98 C 345.99 174.74 354.43 171.50 364.00 171.00 C 373.57 170.50 385.13 168.80 395.00 169.00 C 404.87 169.20 417.30 168.24 426.93 169.07 C 436.56 169.91 446.71 171.06 455.93 172.07 C 465.15 173.08 473.52 175.96 481.99 178.01 C 490.46 180.05 498.64 182.59 506.31 185.70 C 513.97 188.80 520.76 192.35 527.31 196.70 C 533.85 201.04 542.00 204.21 545.00 211.00 C 514.85 231.32 490.11 258.92 465.75 286.75 C 441.40 314.58 418.86 343.81 398.75 374.75 C 378.64 405.70 357.72 435.79 336.92 466.92 C 316.12 498.04 293.79 523.65 263.08 548.08 C 232.37 572.52 184.38 585.95 145.00 583.00 C 105.62 580.05 57.39 553.17 74.00 508.00 C 75.93 518.65 79.29 533.75 94.00 531.00 C 108.70 528.24 110.55 520.12 113.00 507.00 C 115.45 493.88 103.27 483.60 91.01 486.01 C 78.75 488.42 72.87 494.97 67.31 505.31 C 61.75 515.65 62.65 530.38 66.07 540.93 C 69.50 551.47 75.40 558.78 83.92 566.08 C 92.44 573.38 100.85 577.01 111.31 581.69 C 121.76 586.38 135.05 587.78 146.93 589.07 C 158.80 590.36 174.07 589.87 185.78 587.78 C 197.48 585.69 209.75 583.07 220.78 579.78 C 231.80 576.48 241.65 572.01 251.98 567.98 C 262.30 563.94 271.74 559.37 281.31 554.31 C 290.87 549.24 299.88 544.48 308.75 538.75 C 317.63 533.02 325.39 527.02 333.75 520.75 C 342.11 514.49 348.31 506.99 355.75 499.75 C 363.19 492.51 369.01 484.32 375.08 476.08 C 381.15 467.85 385.80 459.03 391.25 450.25 C 396.69 441.46 402.17 432.35 407.08 423.08 C 411.98 413.80 416.50 403.70 421.23 394.23 C 425.96 384.76 431.19 375.19 435.69 365.69 C 440.20 356.19 445.53 346.83 450.69 337.70 C 455.86 328.56 460.89 319.34 466.70 310.70 C 472.50 302.05 477.45 292.97 483.75 284.75 C 490.04 276.52 495.43 268.03 502.25 260.25 C 509.07 252.47 515.59 244.87 522.75 237.75 C 529.92 230.64 536.70 225.05 544.92 217.92 C 553.14 210.79 559.23 224.72 564.70 233.31 C 570.16 241.89 573.44 254.82 575.07 265.93 C 576.71 277.03 575.76 294.02 573.00 305.00 C 570.24 315.97 567.06 326.55 560.92 335.92 C 554.78 345.29 550.27 351.95 541.75 359.75 C 533.23 367.56 525.90 371.96 515.02 376.02 C 504.15 380.09 489.25 380.72 477.67 378.33 C 466.09 375.94 457.46 369.78 446.00 368.00 C 453.10 381.83 471.04 383.70 486.00 387.00 C 500.96 390.30 523.04 387.04 536.93 381.93 C 550.81 376.81 561.90 369.72 572.92 359.92 C 583.94 350.12 591.78 339.81 598.22 326.22 C 604.67 312.64 607.05 292.16 604.93 277.07 C 602.81 261.99 595.70 248.43 587.75 236.25 C 579.81 224.06 568.45 216.84 560.00 206.00 Z" filter="url(#psGlow)" opacity=".85" transform="translate(X, Y) scale(10)"/><path fill="#000" d="M 560.00 206.00 C 567.84 203.32 574.26 198.33 581.77 194.77 C 589.29 191.21 595.94 187.86 603.98 184.98 C 612.01 182.09 620.23 179.74 628.93 177.93 C 637.62 176.12 647.64 174.21 657.00 174.00 C 666.36 173.79 678.32 173.92 686.93 176.07 C 695.53 178.22 702.52 180.67 709.92 185.08 C 717.32 189.49 722.63 193.58 727.75 200.25 C 732.87 206.92 737.76 211.04 740.69 219.31 C 743.62 227.57 746.93 234.73 747.67 244.33 C 748.41 253.93 748.61 264.92 747.33 275.33 C 746.05 285.74 745.28 290.32 741.78 301.78 C 738.28 313.23 747.31 309.69 749.07 299.07 C 750.83 288.46 753.14 282.02 754.02 272.02 C 754.91 262.02 755.67 250.31 753.99 241.01 C 752.31 231.71 750.47 224.03 746.77 216.23 C 743.07 208.43 739.33 203.08 734.10 196.90 C 728.87 190.72 723.72 186.69 716.75 182.25 C 709.78 177.82 702.95 174.68 694.68 172.32 C 686.40 169.97 676.15 168.47 667.00 168.00 C 657.85 167.53 645.93 169.96 637.00 171.00 C 628.08 172.04 619.22 174.31 611.02 177.02 C 602.82 179.74 595.63 182.22 588.02 186.03 C 580.42 189.83 573.68 191.37 566.70 196.70 C 559.71 202.02 553.09 203.73 546.23 197.77 C 539.37 191.82 532.61 191.06 525.08 186.92 C 517.55 182.78 510.33 180.87 502.07 177.93 C 493.82 174.98 484.86 172.99 476.07 170.93 C 467.29 168.87 458.34 167.23 449.07 165.93 C 439.80 164.63 428.92 164.23 419.22 163.78 C 409.52 163.32 397.90 162.34 388.02 163.02 C 378.15 163.71 368.47 164.90 359.00 166.00 C 349.53 167.10 340.06 168.25 331.07 170.07 C 322.09 171.89 313.17 174.35 304.67 176.67 C 296.17 179.00 288.17 181.30 280.22 184.22 C 272.28 187.15 265.26 190.57 257.69 193.69 C 250.13 196.82 243.22 200.45 236.08 204.08 C 228.93 207.70 222.40 211.60 215.70 215.70 C 208.99 219.79 202.57 223.76 196.23 228.23 C 189.89 232.70 183.78 236.94 177.75 241.75 C 171.71 246.56 165.49 251.61 159.75 256.75 C 154.01 261.90 148.49 266.42 143.25 272.25 C 138.00 278.08 133.08 283.09 128.25 289.25 C 123.42 295.41 118.94 300.95 114.77 307.77 C 110.61 314.59 107.13 321.04 103.32 328.32 C 99.51 335.61 97.78 343.79 94.93 351.93 C 92.07 360.06 91.06 369.90 89.93 378.93 C 88.79 387.96 88.60 401.02 90.02 409.98 C 91.44 418.93 93.61 427.16 97.02 434.98 C 100.44 442.79 103.43 448.87 108.75 455.25 C 114.07 461.63 118.48 466.01 125.25 470.75 C 132.02 475.49 138.17 479.09 146.33 481.67 C 154.49 484.26 163.78 486.82 173.00 487.00 C 182.22 487.18 196.03 487.40 204.93 485.93 C 213.82 484.46 222.16 481.77 230.32 479.32 C 238.48 476.88 245.58 473.48 252.92 469.92 C 260.27 466.37 267.05 462.91 273.75 458.75 C 280.46 454.60 286.14 449.98 292.30 445.30 C 298.47 440.62 304.58 436.55 310.25 431.25 C 315.92 425.94 321.19 421.22 326.75 415.75 C 332.32 410.28 337.88 404.79 342.75 398.75 C 347.61 392.71 352.14 387.17 356.70 380.70 C 361.25 374.23 364.72 367.89 368.69 360.69 C 372.67 353.50 374.88 345.80 377.68 337.68 C 380.48 329.55 382.03 319.11 382.00 310.00 C 381.97 300.89 382.00 289.88 377.77 282.23 C 373.54 274.58 370.98 269.43 363.08 264.92 C 355.17 260.42 346.33 258.61 337.00 258.00 C 327.67 257.39 315.73 258.32 307.00 260.00 C 298.27 261.69 289.54 263.37 281.69 266.69 C 273.85 270.02 266.71 272.65 259.70 276.70 C 252.68 280.74 246.47 284.46 240.08 289.08 C 233.69 293.70 228.22 298.14 222.23 303.23 C 216.24 308.32 210.84 313.49 205.25 319.25 C 199.65 325.00 195.38 330.32 190.75 336.75 C 186.12 343.19 182.38 349.62 178.92 356.92 C 175.47 364.23 172.28 372.80 170.99 380.99 C 169.70 389.19 168.85 402.67 171.67 410.33 C 174.49 417.98 175.18 426.63 182.25 431.75 C 189.32 436.88 192.63 444.43 204.00 442.00 C 215.36 439.57 199.36 436.64 192.25 432.75 C 185.14 428.87 181.74 420.01 181.00 412.00 C 180.26 403.99 182.56 391.62 185.02 384.02 C 187.49 376.43 190.68 368.55 194.75 361.75 C 198.81 354.94 202.86 348.80 207.70 342.70 C 212.54 336.59 216.60 330.75 222.25 325.25 C 227.90 319.75 233.12 314.25 238.75 308.75 C 244.38 303.26 249.64 298.63 255.77 293.77 C 261.90 288.91 268.08 285.09 274.92 280.92 C 281.76 276.75 288.16 273.10 295.98 269.98 C 303.79 266.85 313.29 265.03 321.98 263.98 C 330.66 262.92 342.19 262.63 350.32 265.68 C 358.45 268.72 364.08 271.71 369.23 278.77 C 374.38 285.83 376.10 295.68 376.67 304.33 C 377.24 312.98 375.87 324.61 373.78 332.78 C 371.68 340.95 368.10 348.39 364.77 355.77 C 361.44 363.15 357.39 369.52 352.92 375.92 C 348.45 382.32 344.20 388.20 338.92 393.92 C 333.64 399.63 329.37 405.36 323.75 410.75 C 318.14 416.15 312.87 420.85 307.08 426.08 C 301.29 431.31 295.04 436.14 288.75 440.75 C 282.46 445.36 276.95 450.16 270.08 454.08 C 263.22 458.01 257.07 462.11 249.69 465.69 C 242.32 469.28 234.75 471.85 226.68 474.68 C 218.61 477.50 209.94 479.65 201.00 481.00 C 192.06 482.35 179.98 481.82 171.00 481.00 C 162.02 480.18 152.04 478.38 144.23 474.77 C 136.42 471.17 130.93 467.92 124.70 462.30 C 118.46 456.69 114.75 452.04 110.31 444.70 C 105.86 437.35 104.16 428.87 102.78 420.22 C 101.40 411.57 100.91 400.15 102.22 391.22 C 103.53 382.29 106.13 373.84 108.68 365.68 C 111.23 357.51 114.24 350.37 118.08 343.08 C 121.91 335.78 125.53 328.66 130.08 322.08 C 134.63 315.50 138.37 309.33 143.25 303.25 C 148.12 297.16 152.55 291.42 157.75 285.75 C 162.95 280.08 167.54 274.48 173.25 269.25 C 178.96 264.02 183.51 258.41 189.25 253.25 C 195.00 248.10 200.84 243.82 206.75 238.75 C 212.67 233.69 219.31 229.13 225.75 224.75 C 232.19 220.38 238.08 215.92 244.92 211.92 C 251.77 207.93 258.50 204.48 265.77 200.77 C 273.04 197.07 280.19 194.05 287.92 190.92 C 295.66 187.80 303.45 185.08 311.77 182.77 C 320.09 180.46 327.96 177.21 336.98 175.98 C 345.99 174.74 354.43 171.50 364.00 171.00 C 373.57 170.50 385.13 168.80 395.00 169.00 C 404.87 169.20 417.30 168.24 426.93 169.07 C 436.56 169.91 446.71 171.06 455.93 172.07 C 465.15 173.08 473.52 175.96 481.99 178.01 C 490.46 180.05 498.64 182.59 506.31 185.70 C 513.97 188.80 520.76 192.35 527.31 196.70 C 533.85 201.04 542.00 204.21 545.00 211.00 C 514.85 231.32 490.11 258.92 465.75 286.75 C 441.40 314.58 418.86 343.81 398.75 374.75 C 378.64 405.70 357.72 435.79 336.92 466.92 C 316.12 498.04 293.79 523.65 263.08 548.08 C 232.37 572.52 184.38 585.95 145.00 583.00 C 105.62 580.05 57.39 553.17 74.00 508.00 C 75.93 518.65 79.29 533.75 94.00 531.00 C 108.70 528.24 110.55 520.12 113.00 507.00 C 115.45 493.88 103.27 483.60 91.01 486.01 C 78.75 488.42 72.87 494.97 67.31 505.31 C 61.75 515.65 62.65 530.38 66.07 540.93 C 69.50 551.47 75.40 558.78 83.92 566.08 C 92.44 573.38 100.85 577.01 111.31 581.69 C 121.76 586.38 135.05 587.78 146.93 589.07 C 158.80 590.36 174.07 589.87 185.78 587.78 C 197.48 585.69 209.75 583.07 220.78 579.78 C 231.80 576.48 241.65 572.01 251.98 567.98 C 262.30 563.94 271.74 559.37 281.31 554.31 C 290.87 549.24 299.88 544.48 308.75 538.75 C 317.63 533.02 325.39 527.02 333.75 520.75 C 342.11 514.49 348.31 506.99 355.75 499.75 C 363.19 492.51 369.01 484.32 375.08 476.08 C 381.15 467.85 385.80 459.03 391.25 450.25 C 396.69 441.46 402.17 432.35 407.08 423.08 C 411.98 413.80 416.50 403.70 421.23 394.23 C 425.96 384.76 431.19 375.19 435.69 365.69 C 440.20 356.19 445.53 346.83 450.69 337.70 C 455.86 328.56 460.89 319.34 466.70 310.70 C 472.50 302.05 477.45 292.97 483.75 284.75 C 490.04 276.52 495.43 268.03 502.25 260.25 C 509.07 252.47 515.59 244.87 522.75 237.75 C 529.92 230.64 536.70 225.05 544.92 217.92 C 553.14 210.79 559.23 224.72 564.70 233.31 C 570.16 241.89 573.44 254.82 575.07 265.93 C 576.71 277.03 575.76 294.02 573.00 305.00 C 570.24 315.97 567.06 326.55 560.92 335.92 C 554.78 345.29 550.27 351.95 541.75 359.75 C 533.23 367.56 525.90 371.96 515.02 376.02 C 504.15 380.09 489.25 380.72 477.67 378.33 C 466.09 375.94 457.46 369.78 446.00 368.00 C 453.10 381.83 471.04 383.70 486.00 387.00 C 500.96 390.30 523.04 387.04 536.93 381.93 C 550.81 376.81 561.90 369.72 572.92 359.92 C 583.94 350.12 591.78 339.81 598.22 326.22 C 604.67 312.64 607.05 292.16 604.93 277.07 C 602.81 261.99 595.70 248.43 587.75 236.25 C 579.81 224.06 568.45 216.84 560.00 206.00 Z" transform="translate(X, Y) scale(10)"/></g></svg>